# xmcd
#
# Track frame offsets:
#	150
#	33862
#	70773
#	99996
#	131120
#	151173
#	168212
#	199802
#	214934
#	251538
#	272565
#
# Disc length: 3997 seconds
#
# Revision: 1
# Processed by: cddbd v1.5.1PL0 Copyright (c) Steve Scherf et al.
# Submitted via: audiograbber 1.83.01
#
DISCID=910f9b0b
DTITLE=mixed by Locodice - DC10 Monday Morning Sessions CD2
DYEAR=2005
DGENRE=A Cappella
TTITLE0=Carl Graig - Sandstorms
TTITLE1=Menina - Brasilera
TTITLE2=Ricardo Villalobos - True To Myself
TTITLE3=Sunsetpeople - Orion
TTITLE4=Betrieb Mapstation Ft.Ras Donovann - New Motion
TTITLE5=Marc Houle - Borrowed Gear
TTITLE6=Robag Wruhme - Wortkabular (Tobi Neumann RMX)
TTITLE7=Hardfloor - Glop Glop
TTITLE8=Kat Williams - That Track by Kat
TTITLE9=Roman Flugel - Pattern 7
TTITLE10=Buttrich - Meeting Dave Dish
EXTD=
EXTT0=
EXTT1=
EXTT2=
EXTT3=
EXTT4=
EXTT5=
EXTT6=
EXTT7=
EXTT8=
EXTT9=
EXTT10=
PLAYORDER=
